<svg width="44" height="44" viewBox="0 0 44 44" fill="none" xmlns="http://www.w3.org/2000/svg">
<path d="M33.4258 8.11913C33.082 8.11304 32.7403 8.17554 32.4208 8.30298C32.1014 8.43041 31.8105 8.62023 31.5651 8.86134C31.3198 9.10246 31.1249 9.39004 30.9919 9.70731C30.8589 10.0246 30.7903 10.3652 30.7903 10.7092C30.7903 11.0533 30.8589 11.3939 30.9919 11.7111C31.1249 12.0284 31.3198 12.316 31.5651 12.5571C31.8105 12.7982 32.1014 12.988 32.4208 13.1155C32.7403 13.2429 33.082 13.3054 33.4258 13.2993C34.1046 13.2873 34.7516 13.0092 35.2274 12.5247C35.7032 12.0403 35.9698 11.3883 35.9698 10.7092C35.9698 10.0301 35.7032 9.37815 35.2274 8.89372C34.7516 8.40929 34.1046 8.13113 33.4258 8.11913ZM43.3526 13.3438C43.3107 11.5528 42.9756 9.78065 42.3604 8.09808C41.8114 6.65845 40.9572 5.35488 39.8564 4.27709C38.7878 3.17047 37.4816 2.32144 36.0366 1.79426C34.359 1.16003 32.5855 0.816987 30.7924 0.779916C28.5054 0.650391 27.7713 0.650391 21.9016 0.650391C16.031 0.650391 15.2978 0.650391 13.0099 0.779916C11.2166 0.816344 9.44341 1.1604 7.76576 1.79426C6.3235 2.32656 5.01841 3.17457 3.94592 4.27628C2.83965 5.34523 1.99089 6.65184 1.46384 8.09727C0.829799 9.77538 0.486859 11.5495 0.449799 13.343C0.320313 15.6316 0.320312 16.3658 0.320312 22.2374C0.320312 28.1097 0.320313 28.8431 0.449799 31.1317C0.487026 32.9248 0.830164 34.6993 1.46384 36.3774C1.99068 37.8224 2.83963 39.1298 3.94592 40.1984C5.01832 41.3004 6.32342 42.1487 7.76576 42.6813C9.44336 43.3155 11.2169 43.6585 13.0099 43.6956C15.2978 43.8251 16.031 43.8251 21.9016 43.8251C27.7713 43.8251 28.5054 43.8251 30.7924 43.6956C32.5855 43.6585 34.359 43.3155 36.0366 42.6813C37.482 42.1534 38.7882 41.305 39.8564 40.1984C40.9621 39.1247 41.8171 37.82 42.3604 36.3774C42.9756 34.6949 43.3108 32.9228 43.3526 31.1317C43.3526 28.8431 43.4821 28.1097 43.4821 22.2374C43.4821 16.3658 43.4821 15.6316 43.3526 13.3438ZM39.468 30.8726C39.4524 32.2429 39.2045 33.6006 38.7348 34.8879C38.3901 35.8272 37.8367 36.6759 37.1162 37.3699C36.4161 38.0834 35.5691 38.6359 34.6341 38.989C33.3473 39.4595 31.99 39.7077 30.62 39.7232C28.4617 39.8309 27.6637 39.8528 21.9874 39.8528C16.3118 39.8528 15.5131 39.8528 13.3555 39.7232C11.9329 39.7499 10.5164 39.5308 9.16825 39.0756C8.27445 38.7044 7.4665 38.1533 6.79461 37.4565C6.07848 36.7632 5.53205 35.9138 5.19789 34.9745C4.67086 33.6687 4.37853 32.2801 4.33438 30.8726C4.33438 28.7136 4.20489 27.9146 4.20489 22.2374C4.20489 16.5601 4.20489 15.7611 4.33438 13.6029C4.34409 12.2016 4.59983 10.8132 5.08945 9.501C5.46949 8.58988 6.05273 7.77774 6.79461 7.12664C7.45013 6.38422 8.26036 5.79454 9.16825 5.3991C10.4838 4.92438 11.8704 4.67638 13.2689 4.66567C15.4273 4.66567 16.2252 4.53614 21.9016 4.53614C27.5771 4.53614 28.3759 4.53614 30.5334 4.66567C31.9036 4.68105 33.2607 4.92876 34.5475 5.3991C35.5285 5.76326 36.4089 6.35537 37.1162 7.12664C37.8234 7.78968 38.376 8.60032 38.7348 9.501C39.2139 10.8157 39.4631 12.2032 39.468 13.6029C39.5764 15.7611 39.5975 16.5601 39.5975 22.2374C39.5975 27.9154 39.5764 28.7136 39.468 30.8726ZM21.9024 11.163C19.7138 11.1671 17.5756 11.8201 15.7579 13.0394C13.9402 14.2586 12.5246 15.9895 11.6899 18.0132C10.8552 20.037 10.639 22.2628 11.0684 24.4095C11.4979 26.5561 12.5538 28.5273 14.1027 30.0739C15.6517 31.6205 17.6242 32.6731 19.771 33.0988C21.9178 33.5244 24.1425 33.304 26.1641 32.4654C28.1857 31.6268 29.9135 30.2076 31.1291 28.3871C32.3447 26.5666 32.9935 24.4266 32.9937 22.2374C32.9965 20.7806 32.7113 19.3376 32.1547 17.9914C31.598 16.6452 30.7808 15.4224 29.7501 14.3932C28.7194 13.364 27.4954 12.5488 26.1486 11.9945C24.8018 11.4401 23.3587 11.1575 21.9024 11.163ZM21.9024 29.426C20.9587 29.426 20.0242 29.2401 19.1523 28.8788C18.2803 28.5175 17.4881 27.988 16.8208 27.3205C16.1535 26.653 15.6241 25.8605 15.263 24.9883C14.9018 24.1162 14.7159 23.1814 14.7159 22.2374C14.7159 21.2933 14.9018 20.3585 15.263 19.4864C15.6241 18.6142 16.1535 17.8217 16.8208 17.1542C17.4881 16.4867 18.2803 15.9572 19.1523 15.5959C20.0242 15.2347 20.9587 15.0487 21.9024 15.0487C23.8084 15.0487 25.6363 15.8061 26.984 17.1542C28.3317 18.5023 29.0889 20.3308 29.0889 22.2374C29.0889 24.1439 28.3317 25.9724 26.984 27.3205C25.6363 28.6686 23.8084 29.426 21.9024 29.426Z" fill="#333333"/>
</svg>
