<svg width="55" height="55" viewBox="0 0 55 55" fill="none" xmlns="http://www.w3.org/2000/svg">
<path d="M14.8958 21.771H4.58325V50.4168H14.8958V21.771Z" stroke="#333333" stroke-width="2" stroke-linejoin="round"/>
<path d="M14.8958 9.73975C14.8958 12.5875 12.5872 14.896 9.7395 14.896C6.89179 14.896 4.58325 12.5875 4.58325 9.73975C4.58325 6.89203 6.89179 4.5835 9.7395 4.5835C12.5872 4.5835 14.8958 6.89203 14.8958 9.73975Z" stroke="#333333" stroke-width="2" stroke-linejoin="round"/>
<path d="M32.0835 21.771H21.7708V50.4168H32.0835V36.0944C32.0835 33.8795 33.8788 32.084 36.0937 32.084C38.3086 32.084 40.1041 33.8795 40.1041 36.0944V50.4168H50.4136L50.4168 32.084C50.4168 26.3887 45 21.7715 39.6384 21.7715C36.5861 21.7715 33.8632 23.2677 32.0835 25.6072V21.771Z" stroke="#333333" stroke-width="2" stroke-linejoin="round"/>
</svg>
