<svg width="73" height="73" viewBox="0 0 73 73" fill="none" xmlns="http://www.w3.org/2000/svg">
<g clip-path="url(#clip0_154_299)">
<path d="M54.0161 41.9466C53.8739 41.8784 48.552 39.2577 47.6063 38.9174C47.2202 38.7787 46.8066 38.6434 46.3667 38.6434C45.6481 38.6434 45.0444 39.0015 44.5742 39.705C44.0426 40.4952 42.4333 42.3763 41.936 42.9383C41.8711 43.0125 41.7824 43.1011 41.7293 43.1011C41.6817 43.1011 40.8581 42.7619 40.6087 42.6536C34.8998 40.1738 30.5665 34.2103 29.9723 33.2046C29.8875 33.0601 29.8839 32.9944 29.8832 32.9944C29.9041 32.9179 30.096 32.7254 30.1951 32.6261C30.485 32.3393 30.799 31.9613 31.1029 31.5956C31.2467 31.4223 31.3908 31.2488 31.5323 31.0853C31.9732 30.5724 32.1694 30.1742 32.397 29.713L32.5162 29.4733C33.0717 28.3696 32.5972 27.4381 32.4439 27.1373C32.318 26.8856 30.0709 21.4623 29.832 20.8925C29.2575 19.5176 28.4983 18.8774 27.4434 18.8774C27.3455 18.8774 27.4434 18.8774 27.0329 18.8947C26.533 18.9158 23.8109 19.2742 22.6074 20.0329C21.3311 20.8375 19.1719 23.4025 19.1719 27.9133C19.1719 31.9731 21.7482 35.8063 22.8543 37.2642C22.8818 37.3009 22.9323 37.3756 23.0056 37.4827C27.2417 43.6692 32.5226 48.254 37.876 50.3926C43.0298 52.4513 45.4704 52.6892 46.8578 52.6892H46.8581C47.4411 52.6892 47.9078 52.6435 48.3195 52.603L48.5807 52.5781C50.3611 52.4202 54.2737 50.3928 55.1637 47.9196C55.8648 45.9716 56.0497 43.8432 55.5832 43.0708C55.2637 42.5456 54.7132 42.2813 54.0161 41.9466Z" fill="#333333"/>
<path d="M37.1479 0C17.3773 0 1.29261 15.9638 1.29261 35.5858C1.29261 41.9323 2.99105 48.1447 6.2085 53.5818L0.0501917 71.7476C-0.0645226 72.0863 0.0208021 72.4608 0.271325 72.7158C0.452166 72.9005 0.697474 73 0.947997 73C1.04399 73 1.14069 72.9855 1.23502 72.9554L20.1771 66.9363C25.3606 69.7058 31.2191 71.1677 37.1482 71.1677C56.917 71.1679 72.9999 55.2058 72.9999 35.5858C72.9999 15.9638 56.917 0 37.1479 0ZM37.1479 63.7551C31.5689 63.7551 26.1652 62.1441 21.5203 59.0961C21.3641 58.9935 21.1827 58.9409 21.0002 58.9409C20.9038 58.9409 20.8071 58.9556 20.713 58.9854L11.2242 62.0017L14.2873 52.9646C14.3864 52.6721 14.3369 52.3495 14.1544 52.1002C10.6172 47.267 8.74738 41.5567 8.74738 35.5858C8.74738 20.0513 21.4878 7.41282 37.1477 7.41282C52.8057 7.41282 65.5447 20.0513 65.5447 35.5858C65.5449 51.1185 52.8062 63.7551 37.1479 63.7551Z" fill="#333333"/>
</g>
<defs>
<clipPath id="clip0_154_299">
<rect width="73" height="73" fill="white"/>
</clipPath>
</defs>
</svg>
