<svg width="48" height="48" viewBox="0 0 48 48" fill="none" xmlns="http://www.w3.org/2000/svg">
<rect width="48" height="48" rx="24" fill="#762BDB"/>
<path d="M27.3333 34C34.6972 34 40.6667 28.0305 40.6667 20.6667C40.6667 13.3029 34.6972 7.33337 27.3333 7.33337C19.9695 7.33337 14 13.3029 14 20.6667C14 28.0305 19.9695 34 27.3333 34Z" stroke="#F2BB32" stroke-width="3" stroke-linecap="round"/>
<path d="M9.26087 22.3334C8.04197 24.196 7.33325 26.4225 7.33325 28.8147C7.33325 35.3604 12.6396 40.6667 19.1852 40.6667C21.5774 40.6667 23.8039 39.958 25.6666 38.739" stroke="#F2BB32" stroke-width="2" stroke-linecap="round"/>
<path d="M30.2852 17.6749C29.9248 16.1546 28.0908 14.7829 25.8893 15.8091C23.6878 16.8354 23.3382 20.1373 26.6682 20.488C28.1733 20.6466 29.1545 20.3041 30.053 21.2729C30.9513 22.2417 31.1183 24.9362 28.8217 25.6624C26.525 26.3884 24.2508 25.2539 24.0032 23.6427M27.3102 14.0065V15.4549M27.3102 25.8859V27.3399" stroke="#F2BB32" stroke-width="3" stroke-linecap="round" stroke-linejoin="round"/>
</svg>
