<svg width="48" height="48" viewBox="0 0 48 48" fill="none" xmlns="http://www.w3.org/2000/svg">
<rect width="48" height="48" rx="24" fill="#762BDB"/>
<path d="M19.2259 27.4586L19.2272 27.4595C19.5032 27.6428 19.7294 27.8916 19.8857 28.1837C20.042 28.4757 20.1234 28.8019 20.1228 29.1332V29.1331H19.9978L20.1228 29.1334L19.2259 27.4586ZM19.2259 27.4586C17.6908 26.4673 16.4993 25.0263 15.8141 23.3323C15.1289 21.6384 14.9835 19.7742 15.3977 17.9944C15.8119 16.2147 16.7655 14.6063 18.1282 13.3889C19.4909 12.1716 21.1962 11.4047 23.0112 11.1931C23.3384 11.1558 23.6675 11.1361 23.9969 11.1339C25.9107 11.1368 27.7723 11.7586 29.3039 12.9063C30.8355 14.0542 31.9549 15.6666 32.4949 17.5029C33.035 19.3392 32.9667 21.3009 32.3002 23.0952C31.6339 24.8893 30.4052 26.4198 28.7977 27.4583C28.5152 27.6372 28.2822 27.8842 28.1201 28.1766C27.958 28.4692 27.8721 28.7979 27.8702 29.1325V29.1331L27.8702 33.0019L27.8702 33.0025M19.2259 27.4586L27.8702 33.0025M27.8702 33.0025C27.873 33.5455 27.7615 34.0831 27.5431 34.5802C27.3246 35.0773 27.0041 35.523 26.6023 35.8883C26.2005 36.2536 25.7264 36.5303 25.2107 36.7005C24.6958 36.8705 24.1508 36.9304 23.6112 36.8765L27.8702 33.0025ZM23.4119 39.1241L23.4193 39.125H23.4267H23.9965C25.6204 39.125 27.1779 38.4799 28.3262 37.3316C29.4745 36.1833 30.1196 34.6259 30.1196 33.0019V29.2807C32.1011 27.9738 33.6131 26.0669 34.4334 23.8382C35.2616 21.5883 35.3405 19.1311 34.6585 16.8326C33.9764 14.5342 32.5699 12.5177 30.6486 11.0837C28.7273 9.64974 26.394 8.875 23.9965 8.875C21.599 8.875 19.2657 9.64974 17.3444 11.0837C15.4231 12.5177 14.0166 14.5342 13.3345 16.8326C12.6525 19.1311 12.7314 21.5883 13.5596 23.8382C14.3799 26.0669 15.8919 27.9738 17.8734 29.2807V32.791C17.8501 34.3445 18.4032 35.8515 19.4259 37.0211C20.4487 38.1909 21.8689 38.9401 23.4119 39.1241Z" fill="#FABB18" stroke="#FABB18" stroke-width="0.25"/>
<path d="M29.1199 30.2529V30.1279H28.9949H18.998H18.873V30.2529V32.2523V32.3773H18.998H28.9949H29.1199V32.2523V30.2529Z" fill="#FABB18" stroke="#FABB18" stroke-width="0.25"/>
<path d="M26.9956 22.8804H20.9975C20.3763 22.8804 19.8728 23.3839 19.8728 24.0051C19.8728 24.6262 20.3763 25.1297 20.9975 25.1297H26.9956C27.6167 25.1297 28.1203 24.6262 28.1203 24.0051C28.1203 23.3839 27.6167 22.8804 26.9956 22.8804Z" fill="#FABB18" stroke="#FABB18" stroke-width="0.25"/>
<path d="M25.1212 23.2551V23.1301H24.9962H22.9968H22.8718V23.2551V31.2526V31.3776H22.9968H24.9962H25.1212V31.2526V23.2551Z" fill="#FABB18" stroke="#FABB18" stroke-width="0.25"/>
</svg>
